<?xml version="1.0" standalone="no"?><!-- Generator: Gravit.io --><svg xmlns="http://www.w3.org/2000/svg" xmlns:xlink="http://www.w3.org/1999/xlink" style="isolation:isolate" viewBox="0 0 1024 1024" width="1024" height="1024"><defs><clipPath id="_clipPath_OLe8kgV01o5xa32w8ENopWn1GhwBPbPK"><rect width="1024" height="1024"/></clipPath></defs><g clip-path="url(#_clipPath_OLe8kgV01o5xa32w8ENopWn1GhwBPbPK)"><rect x="0" y="0" width="1024" height="1024" transform="matrix(1,0,0,1,0,0)" fill="rgb(81,45,168)"/><path d=" M 716.792 512 Q 733.858 512 745.804 523.946 Q 757.75 535.892 757.75 552.958 L 757.75 798.708 Q 757.75 815.774 745.804 827.72 Q 733.858 839.667 716.792 839.667 L 307.208 839.667 Q 290.142 839.667 278.196 827.72 Q 266.25 815.774 266.25 798.708 L 266.25 552.958 Q 266.25 535.892 278.196 523.946 Q 290.142 512 307.208 512 L 320.861 512 L 320.861 375.472 Q 320.861 296.542 376.965 240.438 Q 433.07 184.333 512 184.333 Q 590.93 184.333 647.035 240.438 Q 703.139 296.542 703.139 375.472 Q 703.139 386.565 695.033 394.671 Q 686.926 402.778 675.833 402.778 L 648.528 402.778 Q 637.435 402.778 629.329 394.671 Q 621.222 386.565 621.222 375.472 Q 621.222 330.247 589.224 298.249 Q 557.225 266.25 512 266.25 Q 466.775 266.25 434.776 298.249 Q 402.778 330.247 402.778 375.472 L 402.778 512" fill="rgb(255,255,255)"/></g></svg>